<mxfile host="app.diagrams.net" modified="2023-10-09T21:47:06.573Z" agent="Mozilla/5.0 (Macintosh; Intel Mac OS X 10_15_7) AppleWebKit/605.1.15 (KHTML, like Gecko) Version/16.5.1 Safari/605.1.15" etag="4TUErCaGXfKQ9OIEqlcU" version="22.0.4" type="device">
  <diagram id="C5RBs43oDa-KdzZeNtuy" name="Page-1">
    <mxGraphModel dx="1363" dy="924" grid="1" gridSize="10" guides="1" tooltips="1" connect="1" arrows="1" fold="1" page="1" pageScale="1" pageWidth="827" pageHeight="1169" math="0" shadow="0">
      <root>
        <mxCell id="WIyWlLk6GJQsqaUBKTNV-0" />
        <mxCell id="WIyWlLk6GJQsqaUBKTNV-1" parent="WIyWlLk6GJQsqaUBKTNV-0" />
        <mxCell id="jnNomJkkQPdUAa3-nfmG-0" value="Start" style="ellipse;whiteSpace=wrap;html=1;" vertex="1" parent="WIyWlLk6GJQsqaUBKTNV-1">
          <mxGeometry x="534" y="40" width="120" height="80" as="geometry" />
        </mxCell>
        <mxCell id="jnNomJkkQPdUAa3-nfmG-1" value="" style="endArrow=classic;html=1;rounded=0;exitX=0.5;exitY=1;exitDx=0;exitDy=0;" edge="1" parent="WIyWlLk6GJQsqaUBKTNV-1" source="jnNomJkkQPdUAa3-nfmG-0" target="jnNomJkkQPdUAa3-nfmG-3">
          <mxGeometry width="50" height="50" relative="1" as="geometry">
            <mxPoint x="344" y="330" as="sourcePoint" />
            <mxPoint x="574" y="290" as="targetPoint" />
          </mxGeometry>
        </mxCell>
        <mxCell id="jnNomJkkQPdUAa3-nfmG-3" value="Input A, B, C" style="shape=parallelogram;perimeter=parallelogramPerimeter;whiteSpace=wrap;html=1;fixedSize=1;" vertex="1" parent="WIyWlLk6GJQsqaUBKTNV-1">
          <mxGeometry x="534" y="230" width="120" height="60" as="geometry" />
        </mxCell>
        <mxCell id="jnNomJkkQPdUAa3-nfmG-4" value="Set Max to A" style="rounded=0;whiteSpace=wrap;html=1;" vertex="1" parent="WIyWlLk6GJQsqaUBKTNV-1">
          <mxGeometry x="534" y="370" width="120" height="60" as="geometry" />
        </mxCell>
        <mxCell id="jnNomJkkQPdUAa3-nfmG-5" value="" style="endArrow=classic;html=1;rounded=0;exitX=0.5;exitY=1;exitDx=0;exitDy=0;entryX=0.5;entryY=0;entryDx=0;entryDy=0;" edge="1" parent="WIyWlLk6GJQsqaUBKTNV-1" source="jnNomJkkQPdUAa3-nfmG-3" target="jnNomJkkQPdUAa3-nfmG-4">
          <mxGeometry width="50" height="50" relative="1" as="geometry">
            <mxPoint x="344" y="330" as="sourcePoint" />
            <mxPoint x="394" y="280" as="targetPoint" />
          </mxGeometry>
        </mxCell>
        <mxCell id="jnNomJkkQPdUAa3-nfmG-8" value="" style="endArrow=classic;html=1;rounded=0;exitX=0.25;exitY=1;exitDx=0;exitDy=0;entryX=0.5;entryY=0;entryDx=0;entryDy=0;" edge="1" parent="WIyWlLk6GJQsqaUBKTNV-1" source="jnNomJkkQPdUAa3-nfmG-4" target="jnNomJkkQPdUAa3-nfmG-9">
          <mxGeometry width="50" height="50" relative="1" as="geometry">
            <mxPoint x="424" y="370" as="sourcePoint" />
            <mxPoint x="474" y="320" as="targetPoint" />
          </mxGeometry>
        </mxCell>
        <mxCell id="jnNomJkkQPdUAa3-nfmG-24" value="No" style="edgeStyle=orthogonalEdgeStyle;rounded=0;orthogonalLoop=1;jettySize=auto;html=1;entryX=1;entryY=0;entryDx=0;entryDy=0;" edge="1" parent="WIyWlLk6GJQsqaUBKTNV-1" source="jnNomJkkQPdUAa3-nfmG-9" target="jnNomJkkQPdUAa3-nfmG-12">
          <mxGeometry relative="1" as="geometry" />
        </mxCell>
        <mxCell id="jnNomJkkQPdUAa3-nfmG-9" value="If B &gt; Max" style="rhombus;whiteSpace=wrap;html=1;" vertex="1" parent="WIyWlLk6GJQsqaUBKTNV-1">
          <mxGeometry x="364" y="465" width="80" height="80" as="geometry" />
        </mxCell>
        <mxCell id="jnNomJkkQPdUAa3-nfmG-11" value="Yes" style="endArrow=classic;html=1;rounded=0;exitX=0;exitY=0.5;exitDx=0;exitDy=0;entryX=0.5;entryY=0;entryDx=0;entryDy=0;" edge="1" parent="WIyWlLk6GJQsqaUBKTNV-1" source="jnNomJkkQPdUAa3-nfmG-9" target="jnNomJkkQPdUAa3-nfmG-16">
          <mxGeometry width="50" height="50" relative="1" as="geometry">
            <mxPoint x="220" y="575" as="sourcePoint" />
            <mxPoint x="300" y="555" as="targetPoint" />
          </mxGeometry>
        </mxCell>
        <mxCell id="jnNomJkkQPdUAa3-nfmG-12" value="If C &amp;gt; Max" style="rhombus;whiteSpace=wrap;html=1;" vertex="1" parent="WIyWlLk6GJQsqaUBKTNV-1">
          <mxGeometry x="294" y="710" width="80" height="80" as="geometry" />
        </mxCell>
        <mxCell id="jnNomJkkQPdUAa3-nfmG-14" value="Yes" style="endArrow=classic;html=1;rounded=0;exitX=0;exitY=0.5;exitDx=0;exitDy=0;entryX=0.5;entryY=0;entryDx=0;entryDy=0;" edge="1" parent="WIyWlLk6GJQsqaUBKTNV-1" source="jnNomJkkQPdUAa3-nfmG-12" target="jnNomJkkQPdUAa3-nfmG-17">
          <mxGeometry width="50" height="50" relative="1" as="geometry">
            <mxPoint x="150" y="820" as="sourcePoint" />
            <mxPoint x="230" y="800" as="targetPoint" />
          </mxGeometry>
        </mxCell>
        <mxCell id="jnNomJkkQPdUAa3-nfmG-26" style="edgeStyle=orthogonalEdgeStyle;rounded=0;orthogonalLoop=1;jettySize=auto;html=1;entryX=0;entryY=0;entryDx=0;entryDy=0;" edge="1" parent="WIyWlLk6GJQsqaUBKTNV-1" source="jnNomJkkQPdUAa3-nfmG-16" target="jnNomJkkQPdUAa3-nfmG-12">
          <mxGeometry relative="1" as="geometry" />
        </mxCell>
        <mxCell id="jnNomJkkQPdUAa3-nfmG-16" value="Set Max to B" style="rounded=0;whiteSpace=wrap;html=1;" vertex="1" parent="WIyWlLk6GJQsqaUBKTNV-1">
          <mxGeometry x="140" y="575" width="120" height="60" as="geometry" />
        </mxCell>
        <mxCell id="jnNomJkkQPdUAa3-nfmG-23" style="edgeStyle=orthogonalEdgeStyle;rounded=0;orthogonalLoop=1;jettySize=auto;html=1;entryX=0.5;entryY=0;entryDx=0;entryDy=0;" edge="1" parent="WIyWlLk6GJQsqaUBKTNV-1" source="jnNomJkkQPdUAa3-nfmG-17" target="jnNomJkkQPdUAa3-nfmG-18">
          <mxGeometry relative="1" as="geometry" />
        </mxCell>
        <mxCell id="jnNomJkkQPdUAa3-nfmG-17" value="Set Max to C" style="rounded=0;whiteSpace=wrap;html=1;" vertex="1" parent="WIyWlLk6GJQsqaUBKTNV-1">
          <mxGeometry x="190" y="840" width="120" height="60" as="geometry" />
        </mxCell>
        <mxCell id="jnNomJkkQPdUAa3-nfmG-22" style="edgeStyle=orthogonalEdgeStyle;rounded=0;orthogonalLoop=1;jettySize=auto;html=1;" edge="1" parent="WIyWlLk6GJQsqaUBKTNV-1" source="jnNomJkkQPdUAa3-nfmG-18" target="jnNomJkkQPdUAa3-nfmG-19">
          <mxGeometry relative="1" as="geometry" />
        </mxCell>
        <mxCell id="jnNomJkkQPdUAa3-nfmG-18" value="Output Max" style="shape=parallelogram;perimeter=parallelogramPerimeter;whiteSpace=wrap;html=1;fixedSize=1;" vertex="1" parent="WIyWlLk6GJQsqaUBKTNV-1">
          <mxGeometry x="340" y="924" width="120" height="50" as="geometry" />
        </mxCell>
        <mxCell id="jnNomJkkQPdUAa3-nfmG-19" value="End" style="ellipse;whiteSpace=wrap;html=1;" vertex="1" parent="WIyWlLk6GJQsqaUBKTNV-1">
          <mxGeometry x="220" y="1004" width="120" height="80" as="geometry" />
        </mxCell>
        <mxCell id="jnNomJkkQPdUAa3-nfmG-25" value="No" style="edgeStyle=orthogonalEdgeStyle;rounded=0;orthogonalLoop=1;jettySize=auto;html=1;entryX=1.007;entryY=0.123;entryDx=0;entryDy=0;entryPerimeter=0;" edge="1" parent="WIyWlLk6GJQsqaUBKTNV-1" source="jnNomJkkQPdUAa3-nfmG-12" target="jnNomJkkQPdUAa3-nfmG-18">
          <mxGeometry relative="1" as="geometry" />
        </mxCell>
      </root>
    </mxGraphModel>
  </diagram>
</mxfile>
